<svg width="41" height="34" viewBox="0 0 41 34" fill="none" xmlns="http://www.w3.org/2000/svg">
<path d="M20.8396 24.2782C20.4614 24.2782 20.1526 24.5775 20.1526 24.9493V26.2739C20.1526 26.6457 20.4614 26.9449 20.8396 26.9449C21.2178 26.9449 21.5265 26.6457 21.5265 26.2739V24.9493C21.5265 24.5775 21.2178 24.2782 20.8396 24.2782Z" fill="white" stroke="white" stroke-width="0.1"/>
<path d="M37.5581 15.0004L37.5581 15.0004C37.1069 12.8425 36.0951 10.8085 34.6321 9.11782C33.2237 7.49021 31.4214 6.20894 29.4118 5.40129C29.0828 4.06527 28.3927 2.68766 27.0386 1.65026C25.7205 0.640502 24.3931 0.445853 24.3338 0.437534L24.3338 0.437525C24.1374 0.410231 23.9377 0.467219 23.7872 0.59451C23.6366 0.72184 23.5498 0.906802 23.5498 1.10183V4.40538H21.3254C20.736 2.49128 18.9142 1.09327 16.7634 1.09327C14.5652 1.09327 12.7096 2.55321 12.1632 4.53233C9.01519 4.95808 6.11974 6.4488 3.96924 8.76229L4.00586 8.79633L3.96924 8.76229C1.69996 11.2038 0.45 14.3646 0.45 17.6624C0.45 25.0521 4.38387 31.0623 5.5891 32.7278C5.97046 33.2549 6.59453 33.5691 7.2582 33.5691H9.96922C11.0961 33.5691 12.015 32.675 12.015 31.5732V30.7716C12.6849 30.8693 13.3649 30.9194 14.0457 30.9194H20.1528V31.5732C20.1528 32.675 21.0717 33.5691 22.1986 33.5691H25.1765C26.134 33.5691 26.9756 32.9067 27.1767 31.9917L27.4969 30.5352C31.673 29.5336 35.0324 26.6771 36.6959 22.9705H39.1837C39.9359 22.9705 40.55 22.3736 40.55 21.6371V16.3377C40.55 15.981 40.4075 15.6458 40.1493 15.3941C39.8912 15.1425 39.5483 15.0041 39.1838 15.0041H39.1837H39.1837H39.1837H39.1836H39.1836H39.1836H39.1835L37.5592 15.0043C37.5587 15.003 37.5584 15.0017 37.5581 15.0004ZM39.1762 21.5869H39.1761V21.6284H37.2111C37.5469 20.5848 37.7538 19.4889 37.8138 18.3596C37.8337 17.9883 37.5411 17.6738 37.1633 17.6547C36.7857 17.636 36.4615 17.9187 36.4418 18.29C36.1746 23.3126 32.6861 27.6062 27.8218 29.0564L28.6936 25.0901C28.7736 24.7265 28.5358 24.3704 28.1656 24.2931C27.7961 24.2156 27.4301 24.4453 27.3503 24.8084L25.8334 31.7099C25.7678 32.0085 25.4919 32.227 25.1765 32.227H22.1984C21.8268 32.227 21.5266 31.9325 21.5266 31.5732V28.9235C21.5266 28.5517 21.2178 28.2524 20.8396 28.2524C20.4614 28.2524 20.1527 28.5517 20.1527 28.9235V29.5773H14.0455C13.3637 29.5773 12.6831 29.5213 12.0148 29.4125V24.949C12.0148 24.5772 11.7061 24.278 11.3279 24.278C10.9497 24.278 10.6409 24.5772 10.6409 24.949V31.5732C10.6409 31.9325 10.3407 32.2271 9.96906 32.2271H7.2582C7.03553 32.2271 6.83663 32.127 6.71107 31.9533L6.71106 31.9533C5.56414 30.3681 1.82391 24.6542 1.82391 17.6624C1.82391 14.699 2.94692 11.8586 4.98639 9.66446L4.94977 9.63042L4.98639 9.66446C6.84008 7.67005 9.30923 6.35586 12.0037 5.9137C12.0187 6.30168 12.0834 6.68523 12.195 7.05501H12.0074C11.6292 7.05501 11.3205 7.35424 11.3205 7.72604C11.3205 8.09784 11.6292 8.39707 12.0074 8.39707H21.5191C21.8974 8.39707 22.2061 8.09784 22.2061 7.72604C22.2061 7.35424 21.8974 7.05501 21.5191 7.05501H21.3315C21.4592 6.63247 21.5258 6.19201 21.5266 5.74736H23.5498V7.06358C23.5498 7.43538 23.8585 7.73461 24.2367 7.73461C24.6149 7.73461 24.9237 7.43538 24.9237 7.06358V1.98955C25.5183 2.21876 26.343 2.66722 27.0288 3.52269C27.7404 4.41024 28.3056 5.73964 28.3056 7.72612C28.3056 8.09792 28.6144 8.39715 28.9926 8.39715C29.3708 8.39715 29.6795 8.09792 29.6795 7.72612C29.6795 7.48823 29.6716 7.23838 29.6536 6.98052C31.1527 7.70537 32.4978 8.73045 33.5829 9.98435C34.8977 11.5038 35.8068 13.3312 36.212 15.269C36.3426 15.8939 36.9049 16.3465 37.5487 16.3464L39.1762 16.3463V21.5869ZM16.7633 2.4354C18.6334 2.4354 20.1527 3.9186 20.1527 5.73895C20.1527 6.19376 20.0552 6.64205 19.871 7.05517L13.6555 7.05517C13.4714 6.6419 13.3737 6.19375 13.3737 5.73895C13.3737 3.91852 14.8931 2.4354 16.7633 2.4354Z" fill="white" stroke="white" stroke-width="0.1"/>
<path d="M28.4116 15.4405L28.4116 15.4405C28.815 14.3857 29.8808 13.6794 31.0621 13.6794C32.2433 13.6794 33.3093 14.3857 33.7125 15.4405C33.7125 15.4405 33.7125 15.4405 33.7125 15.4405L33.6658 15.4583C33.7887 15.7796 33.6211 16.1373 33.2915 16.2571L28.4116 15.4405ZM28.4116 15.4405C28.2784 15.7888 28.4605 16.1751 28.8155 16.3041M28.4116 15.4405L28.8155 16.3041M28.8155 16.3041C29.17 16.4331 29.5657 16.2577 29.6986 15.9101L28.8155 16.3041ZM33.0691 16.3464C33.1488 16.3464 33.2297 16.3328 33.3086 16.3041L29.6986 15.91C29.9011 15.3805 30.4479 15.0214 31.062 15.0214C31.6761 15.0214 32.223 15.3805 32.4255 15.9101C32.5289 16.1805 32.7913 16.3464 33.0691 16.3464Z" fill="white" stroke="white" stroke-width="0.1"/>
<path d="M19.7116 18.0757C19.0601 17.6339 18.2201 17.3632 17.4502 17.1509V14.072C18.0451 14.1491 18.5484 14.3214 18.9047 14.5342C19.2758 14.7558 19.4733 15.0121 19.4733 15.2406C19.4733 15.6124 19.7821 15.9116 20.1603 15.9116C20.5385 15.9116 20.8472 15.6124 20.8472 15.2406C20.8472 14.585 20.4732 13.9989 19.8589 13.5557C19.254 13.1193 18.4127 12.8182 17.4502 12.7204V12.6944C17.4502 12.3226 17.1414 12.0234 16.7632 12.0234C16.385 12.0234 16.0763 12.3226 16.0763 12.6944V12.7204C15.1138 12.8182 14.2724 13.1193 13.6676 13.5557C13.0533 13.9989 12.6792 14.585 12.6792 15.2406C12.6792 16.1681 13.1508 16.799 13.8149 17.2494C14.4663 17.6912 15.3064 17.9619 16.0763 18.1742V21.2531C15.4814 21.176 14.9781 21.0037 14.6218 20.7909C14.2506 20.5693 14.0532 20.313 14.0532 20.0845C14.0532 19.7127 13.7444 19.4135 13.3662 19.4135C12.988 19.4135 12.6792 19.7127 12.6792 20.0845C12.6792 20.7401 13.0533 21.3262 13.6676 21.7694C14.2724 22.2058 15.1138 22.5069 16.0763 22.6047V22.6307C16.0763 23.0025 16.385 23.3017 16.7632 23.3017C17.1414 23.3017 17.4502 23.0025 17.4502 22.6307V22.6047C18.4127 22.5069 19.254 22.2058 19.8589 21.7694C20.4732 21.3262 20.8472 20.7401 20.8472 20.0845C20.8472 19.157 20.3757 18.5261 19.7116 18.0757ZM16.0763 14.072V16.7681C15.3286 16.5358 14.8248 16.3146 14.5067 16.0733C14.1827 15.8275 14.0532 15.5627 14.0532 15.2406C14.0532 15.0121 14.2506 14.7558 14.6218 14.5342C14.9781 14.3214 15.4814 14.1491 16.0763 14.072ZM18.9047 20.791C18.5484 21.0038 18.045 21.1761 17.4502 21.2532V18.557C18.1979 18.7893 18.7016 19.0105 19.0198 19.2519C19.3437 19.4976 19.4733 19.7625 19.4733 20.0846C19.4733 20.3131 19.2758 20.5694 18.9047 20.791Z" fill="white" stroke="white" stroke-width="0.1"/>
</svg>
