<svg width="29" height="30" viewBox="0 0 29 30" fill="none" xmlns="http://www.w3.org/2000/svg">
<path d="M27.1683 22.6657L24.7903 22.1372V21.4536C25.6374 20.8612 26.1935 19.8802 26.1935 18.7707V17.8352C26.1935 16.1892 24.9714 14.8267 23.3871 14.5985V12.3735L19.0646 10.6442L19.7322 9.9768L19.0641 8.97485C19.1989 8.71517 19.3113 8.4443 19.3996 8.16476L20.5806 7.92792V5.29002L19.4001 5.05363C19.3117 4.77408 19.1989 4.50321 19.0646 4.24353L19.7326 3.24159L17.8678 1.37679L16.8659 2.04483C16.6062 1.91008 16.3353 1.79771 16.0558 1.70932L15.8189 0.52832H13.1811L12.9447 1.70887C12.6651 1.79725 12.3942 1.91008 12.1346 2.04437L11.1326 1.37633L9.26782 3.24113L9.93586 4.24308C9.80111 4.50276 9.68874 4.77363 9.60036 5.05318L8.41935 5.29002V7.92792L9.5999 8.1643C9.68829 8.44385 9.80111 8.71472 9.9354 8.9744L9.26737 9.97634L9.93495 10.6437L5.6129 12.3731V14.598C4.02856 14.8262 2.80645 16.1888 2.80645 17.8348V18.7703C2.80645 19.8802 3.36258 20.8612 4.20968 21.4531V22.1365L1.83168 22.6652C0.753001 22.905 0 23.8439 0 24.9482V29.5283H29V24.9482C29 23.8439 28.247 22.905 27.1683 22.6657ZM23.8548 22.3836C23.7388 22.5627 23.4166 22.9799 22.9194 22.9799C22.4222 22.9799 22.0999 22.5622 21.9839 22.3836V21.907C22.2803 21.9953 22.5944 22.0444 22.9194 22.0444C23.2444 22.0444 23.5584 21.9953 23.8548 21.9065V22.3836ZM25.2581 17.8348V18.7703C25.2581 20.0597 24.2088 21.109 22.9194 21.109C21.6299 21.109 20.5806 20.0597 20.5806 18.7703V17.8348C20.5806 16.5453 21.6299 15.4961 22.9194 15.4961C24.2088 15.4961 25.2581 16.5453 25.2581 17.8348ZM22.4516 13.0062V14.598C20.8673 14.8262 19.6452 16.1888 19.6452 17.8348V18.7703C19.6452 19.8802 20.2013 20.8612 21.0484 21.4531V22.1365L18.7097 22.6563L16.371 22.1365V21.4531C17.2181 20.8607 17.7742 19.8798 17.7742 18.7703V17.8348C17.7742 16.1888 16.5521 14.8262 14.9677 14.598V12.6896H15.8189L16.0553 11.5091C16.3349 11.4207 16.6058 11.3079 16.8654 11.1736L17.8674 11.8416L18.3449 11.364L22.4516 13.0062ZM19.6452 28.5928H9.35484V24.9482C9.35484 24.2854 9.80659 23.7222 10.4536 23.5781L12.8825 23.0384C13.15 23.3929 13.6819 23.9154 14.5 23.9154C15.3181 23.9154 15.85 23.3929 16.1175 23.0389L18.5464 23.5785C19.1934 23.7222 19.6452 24.2859 19.6452 24.9482V28.5928ZM14.5 15.4961C15.7895 15.4961 16.8387 16.5453 16.8387 17.8348V18.7703C16.8387 20.0597 15.7895 21.109 14.5 21.109C13.2105 21.109 12.1613 20.0597 12.1613 18.7703V17.8348C12.1613 16.5453 13.2105 15.4961 14.5 15.4961ZM14.5 22.0444C14.825 22.0444 15.139 21.9953 15.4355 21.9065V22.3832C15.3195 22.5627 14.9972 22.9799 14.5 22.9799C14.0028 22.9799 13.6805 22.5622 13.5645 22.3836V21.907C13.861 21.9953 14.175 22.0444 14.5 22.0444ZM9.35484 7.16098V6.05695L10.352 5.85734L10.4246 5.57208C10.5242 5.17993 10.679 4.80629 10.8844 4.46119L11.0353 4.20768L10.471 3.36104L11.2516 2.5804L12.0983 3.14498L12.3518 2.99379C12.6969 2.78846 13.0705 2.63316 13.4627 2.53404L13.7479 2.46141L13.948 1.4638H15.052L15.2516 2.46095L15.5369 2.53358C15.929 2.63316 16.3027 2.78801 16.6478 2.99333L16.9013 3.14429L17.7479 2.57994L18.5286 3.36058L17.964 4.20722L18.1152 4.46073C18.3205 4.80583 18.4758 5.17947 18.5749 5.57162L18.6476 5.85688L19.6452 6.05695V7.16098L18.648 7.3606L18.5754 7.64585C18.4758 8.038 18.321 8.41164 18.1156 8.75674L17.9647 9.01025L18.529 9.85689L17.7484 10.6375L16.9017 10.073L16.6482 10.2241C16.3031 10.4295 15.9295 10.5848 15.5373 10.6839L15.2521 10.7565L15.052 11.7541H13.948L13.7484 10.757L13.4631 10.6844C13.071 10.5848 12.6973 10.4299 12.3522 10.2246L12.0987 10.0736L11.2521 10.638L10.4714 9.85735L11.036 9.01071L10.8848 8.7572C10.6795 8.4121 10.5242 8.03846 10.4251 7.64631L10.3524 7.36105L9.35484 7.16098ZM10.6551 11.3636L11.1326 11.8411L12.1346 11.1731C12.3942 11.3079 12.6651 11.4202 12.9447 11.5086L13.1811 12.6896H14.0323V14.598C12.4479 14.8262 11.2258 16.1888 11.2258 17.8348V18.7703C11.2258 19.8802 11.7819 20.8612 12.629 21.4531V22.1365L10.2903 22.6563L7.95161 22.1365V21.4531C8.79871 20.8607 9.35484 19.8798 9.35484 18.7703V17.8348C9.35484 16.1888 8.13273 14.8262 6.54839 14.598V13.0062L10.6551 11.3636ZM3.74194 18.7703V17.8348C3.74194 16.5453 4.79116 15.4961 6.08065 15.4961C7.37013 15.4961 8.41935 16.5453 8.41935 17.8348V18.7703C8.41935 20.0597 7.37013 21.109 6.08065 21.109C4.79116 21.109 3.74194 20.0597 3.74194 18.7703ZM6.08065 22.0444C6.40564 22.0444 6.71968 21.9953 7.01613 21.9065V22.3832C6.90011 22.5627 6.57785 22.9799 6.08065 22.9799C5.58253 22.9799 5.25981 22.5608 5.14516 22.3836V21.9065C5.44161 21.9953 5.75565 22.0444 6.08065 22.0444ZM0.935484 24.9482C0.935484 24.2854 1.38724 23.7222 2.03427 23.5781L4.46319 23.0384C4.73063 23.3929 5.26255 23.9154 6.08065 23.9154C6.89874 23.9154 7.43066 23.3929 7.6981 23.0389L9.06387 23.3424C8.6635 23.7638 8.41935 24.327 8.41935 24.9482V28.5928H0.935484V24.9482ZM28.0645 28.5928H20.5806V24.9482C20.5806 24.327 20.3365 23.7633 19.9361 23.3419L21.3019 23.0384C21.5693 23.3929 22.1013 23.9154 22.9194 23.9154C23.7374 23.9154 24.2694 23.3929 24.5368 23.0389L26.9657 23.5785C27.6128 23.7222 28.0645 24.2859 28.0645 24.9482V28.5928Z" fill="#E3B873"/>
</svg>
