<svg width="43" height="44" fill="none" xmlns="http://www.w3.org/2000/svg"><path d="M28.63 2.923l-.175.969a20.082 20.082 0 017.885 5.354 20.034 20.034 0 015.183 13.465.144.144 0 11-.289 0c0-9.896-7.23-18.188-16.936-19.582l-.57-.082v1.867c0 .08-.065.145-.145.145h-4.271a.144.144 0 01-.145-.144V3.047l-.571.082C8.89 4.523 1.66 12.815 1.66 22.71a.144.144 0 11-.29 0c0-4.988 1.842-9.769 5.185-13.465a20.078 20.078 0 017.884-5.354l-.174-.968h-8.3l-.113.344a1.571 1.571 0 01-1.49 1.08 1.57 1.57 0 01-1.568-1.569A1.57 1.57 0 014.362 1.21a1.57 1.57 0 011.49 1.08l.113.344h13.202V.644c0-.08.065-.145.145-.145h4.27c.08 0 .145.065.145.145v1.99H36.93l.113-.343a1.571 1.571 0 011.49-1.08A1.57 1.57 0 0140.1 2.779a1.57 1.57 0 01-1.569 1.568 1.571 1.571 0 01-1.49-1.08l-.112-.344h-8.3zM19.455 4.27v.5h3.982V.788h-3.982V4.27zm20.356-1.49a1.28 1.28 0 10-2.56.002 1.28 1.28 0 002.56-.002zm-36.728 0a1.28 1.28 0 102.56-.002 1.28 1.28 0 00-2.56.002z" fill="#fff" stroke="#fff"/><mask id="a" fill="#fff"><path d="M23.434 7.448a.644.644 0 00-.563-.33h-2.848a.645.645 0 00-.562.33l-8.543 15.305a.646.646 0 00-.081.314v.712c0 .122.034.24.1.344l3.646 5.773h-2.39a.644.644 0 100 1.29h.067v2.202c0 .357.289.645.645.645h.779v2.203c0 .356.288.645.644.645h.78v6.473c0 .357.288.645.644.645h11.39a.644.644 0 00.645-.645V36.88h.779a.645.645 0 00.644-.644v-2.203h.78a.644.644 0 00.644-.645v-2.202h.067a.645.645 0 000-1.29h-2.39l3.647-5.773a.644.644 0 00.1-.344v-.712a.643.643 0 00-.082-.314L23.434 7.448zM21.447 21.22a.78.78 0 11-.001 1.56.78.78 0 01.001-1.56zm6.474 14.371H20.85a.645.645 0 000 1.29h5.648v1.557h-.779a.644.644 0 100 1.29h.78v2.982H16.396v-2.982h.779a.644.644 0 100-1.29h-.78V36.88h1.7a.644.644 0 100-1.289h-3.123v-1.558H27.92v1.558zm1.424-2.847H13.549v-1.558h15.796v1.558zm1.424-9.152l-1.285 2.033h-1.63a.644.644 0 100 1.29h.816l-1.884 2.981h-4.695v-1.49a.644.644 0 10-1.289 0v1.49h-4.695l-1.883-2.982h.816a.644.644 0 100-1.289h-1.63l-1.284-2.033v-.358l8.276-14.828h.4v11.628a2.072 2.072 0 00-1.423 1.965 2.07 2.07 0 002.068 2.068 2.07 2.07 0 002.069-2.069c0-.915-.599-1.693-1.424-1.964V8.406h.4l8.277 14.828v.358z"/></mask><path d="M23.434 7.448a.644.644 0 00-.563-.33h-2.848a.645.645 0 00-.562.33l-8.543 15.305a.646.646 0 00-.081.314v.712c0 .122.034.24.1.344l3.646 5.773h-2.39a.644.644 0 100 1.29h.067v2.202c0 .357.289.645.645.645h.779v2.203c0 .356.288.645.644.645h.78v6.473c0 .357.288.645.644.645h11.39a.644.644 0 00.645-.645V36.88h.779a.645.645 0 00.644-.644v-2.203h.78a.644.644 0 00.644-.645v-2.202h.067a.645.645 0 000-1.29h-2.39l3.647-5.773a.644.644 0 00.1-.344v-.712a.643.643 0 00-.082-.314L23.434 7.448zM21.447 21.22a.78.78 0 11-.001 1.56.78.78 0 01.001-1.56zm6.474 14.371H20.85a.645.645 0 000 1.29h5.648v1.557h-.779a.644.644 0 100 1.29h.78v2.982H16.396v-2.982h.779a.644.644 0 100-1.29h-.78V36.88h1.7a.644.644 0 100-1.289h-3.123v-1.558H27.92v1.558zm1.424-2.847H13.549v-1.558h15.796v1.558zm1.424-9.152l-1.285 2.033h-1.63a.644.644 0 100 1.29h.816l-1.884 2.981h-4.695v-1.49a.644.644 0 10-1.289 0v1.49h-4.695l-1.883-2.982h.816a.644.644 0 100-1.289h-1.63l-1.284-2.033v-.358l8.276-14.828h.4v11.628a2.072 2.072 0 00-1.423 1.965 2.07 2.07 0 002.068 2.068 2.07 2.07 0 002.069-2.069c0-.915-.599-1.693-1.424-1.964V8.406h.4l8.277 14.828v.358z" fill="#fff" stroke="#fff" stroke-width="2" mask="url(#a)"/></svg>