<svg width="34" height="30" fill="none" xmlns="http://www.w3.org/2000/svg"><path d="M22.426 9.433l-4.845-1.454a3.426 3.426 0 00-1.108-.133v-.013h-5.89L.14 4.363l.03 14.675 2.998 1.498 1.775-4.34 2.593 1.038.673-1.68.973.974-.908.908a1.695 1.695 0 001.14 2.89 1.692 1.692 0 001.63 1.63 1.693 1.693 0 001.63 1.63 1.695 1.695 0 001.69 1.636c.446 0 .883-.18 1.199-.497l.909-.908.365.365c.316.316.752.497 1.199.497.915 0 1.658-.73 1.69-1.636a1.693 1.693 0 001.63-1.63 1.692 1.692 0 001.63-1.63 1.695 1.695 0 001.637-1.69c0-.078-.013-.154-.023-.23l.78-.78.63 1.26 3.413-1.706 2.063 3.938 2.374-1.583V4.947L22.426 9.433zM2.606 19.04l-1.349-.675L1.23 5.87l5.954 1.98-4.578 11.19zm4.326-3.219l-1.577-.63 2.863-6.998 1.558.518-2.844 7.11zm1.933 2.815c0-.16.065-.318.178-.431l.956-.956a.61.61 0 01.862.862l-.956.956a.61.61 0 01-1.04-.43zm1.63 1.63c0-.16.065-.317.178-.431l.956-.955a.61.61 0 01.862.862l-.956.955a.61.61 0 01-1.04-.43zm1.63 1.63c0-.16.065-.317.178-.431l.956-.955a.61.61 0 01.862.862l-.956.955a.61.61 0 01-1.04-.43zm3.626 1.106l-.955.955a.61.61 0 01-.862-.862l.955-.955a.61.61 0 01.862.862zm7.177-4.3a.613.613 0 01-.431-.179l-4.553-4.553-.769.768 4.553 4.553a.61.61 0 01-.862.862L16.313 15.6l-.768.769 4.553 4.553a.61.61 0 01-.862.862l-4.553-4.554-.768.769 4.553 4.553a.61.61 0 01-.862.862l-.613-.613c.011-.076.023-.152.023-.23 0-.915-.73-1.658-1.636-1.69a1.692 1.692 0 00-1.63-1.63 1.692 1.692 0 00-1.63-1.63 1.695 1.695 0 00-1.69-1.637c-.078 0-.154.013-.23.023l-1.552-1.551 2.215-5.536h3.211l-1.995 1.996a1.698 1.698 0 002.398 2.398l1.44-1.44a.836.836 0 011.12-.024l1.27 1.165c.422.387.891.708 1.393.96l3.659 3.686a.61.61 0 01-.43 1.04zm1.152-1.856l-2.233-2.25c.2.018.4.03.603.03v-1.087a5.032 5.032 0 01-3.408-1.326l-1.27-1.164c-.718-.658-1.935-.632-2.623.057l-1.44 1.44a.61.61 0 01-.863-.862l2.072-2.071a2.38 2.38 0 012.35-.593l4.8 1.44 2.8 5.599-.788.787zm2.417.04l-3.295-6.59 2.406-.944 3.312 6.322-2.423 1.211zm6.278 1.525l-.886.59-5.263-10.048 6.149-2.412v11.87z" fill="#E3B873"/><circle cx="19.667" cy="1.574" r=".486" fill="#E3B873"/><circle cx="7.41" cy="24.503" r=".486" fill="#E3B873"/><circle cx="9.468" cy="26.192" r=".486" fill="#E3B873"/><circle cx="11.817" cy="27.43" r=".486" fill="#E3B873"/><circle cx="14.366" cy="28.223" r=".486" fill="#E3B873"/><circle cx="22.214" cy="2.347" r=".486" fill="#E3B873"/><circle cx="24.563" cy="3.601" r=".486" fill="#E3B873"/><path d="M26.83 2.9v2.8h-2.833M5.01 24.186V21.92h2.264" stroke="#E3B873" stroke-linecap="round" stroke-linejoin="round"/><path d="M7.8 4.882c1.536-1.335 2.512-1.95 4.352-2.668 1.951-.762 3.272-.941 5.392-.941M28.405 22.37c-1.142 1.781-3.267 3.52-4.996 4.474-1.834 1.012-3.799 1.583-6.416 1.72" stroke="#E3B873" stroke-linecap="round"/></svg>