<svg width="44" height="44" fill="none" xmlns="http://www.w3.org/2000/svg"><g clip-path="url(#clip0)" fill="#fff"><path d="M24.37-.001c-8.99 0-16.305 7.314-16.305 16.305v2.674l-4.54 7.813a.645.645 0 00-.087.324v2.714c0 .356.288.645.644.645h3.983v4.338a3.496 3.496 0 003.492 3.492h1.311a.644.644 0 000-1.29h-1.311a2.205 2.205 0 01-2.203-2.202v-4.338h1.847a.645.645 0 00.644-.645v-4.271a.645.645 0 00-.644-.645H9.777a.644.644 0 100 1.29h.78v2.982h-5.83v-1.559h2.202a.645.645 0 000-1.289H5.28l3.98-6.847a.643.643 0 00.095-.338v-2.848c0-8.28 6.736-15.016 15.016-15.016 8.28 0 15.016 6.736 15.016 15.016v5.695c0 6.193-3.704 11.654-9.446 13.948h-1.655a.644.644 0 100 1.289h1.135v5.474H17.54v-4.406h1.49a.644.644 0 100-1.29h-3.58a.645.645 0 000 1.29h.8v5.05c0 .357.29.645.645.645h13.17a.644.644 0 00.644-.645v-6.329a16.285 16.285 0 007.055-5.726 16.209 16.209 0 002.911-9.3v-5.695c0-8.99-7.314-16.305-16.305-16.305z"/><path d="M15.885 15.592c0 1.74.523 3.411 1.513 4.834a8.463 8.463 0 003.47 2.89v1.33H20.8a.644.644 0 100 1.29h.067v1.758c0 .356.288.644.644.644h.068v1.491c0 .356.288.645.644.645h4.271a.645.645 0 00.645-.645v-1.49h.067a.645.645 0 00.645-.645v-1.758h.067a.645.645 0 100-1.29h-.067v-1.33a8.463 8.463 0 003.47-2.89 8.425 8.425 0 001.512-4.834c0-4.673-3.801-8.475-8.474-8.475s-8.475 3.802-8.475 8.475zm6.984 2.069h.512l1.235 1.235a.646.646 0 00.912 0l.323-.324v3.672h-2.982v-4.583zm2.982 11.524h-2.982v-.847h2.982v.847zm.712-2.136h-4.406v-1.113h4.406v1.113zm-4.406-2.402v-1.114h4.406v1.114h-4.406zm2.203-16.24a7.193 7.193 0 017.185 7.185 7.142 7.142 0 01-4.405 6.627v-5.915a.645.645 0 00-1.29 0v.445l-.778.78-.968-.969a.645.645 0 00-.456-.188h-.78v-.068a.645.645 0 00-1.288 0v5.915a7.142 7.142 0 01-4.406-6.627c0-3.962 3.223-7.186 7.186-7.186zm.644-2.781V3.491a.644.644 0 10-1.289 0v2.135a.644.644 0 101.29 0zm-8.809.98a.645.645 0 00-.911.911l1.51 1.51a.643.643 0 00.912 0 .644.644 0 000-.911l-1.51-1.51zm-1.89 8.431h-2.136a.645.645 0 000 1.289h2.136a.644.644 0 100-1.29zm2.489 7.298l-1.51 1.51a.644.644 0 10.911.912l1.51-1.51a.645.645 0 00-.91-.912zm14.22 0a.644.644 0 000 .912l1.51 1.51a.643.643 0 00.912 0 .645.645 0 000-.912l-1.51-1.51a.644.644 0 00-.912 0zm5.536-6.009a.644.644 0 100-1.29h-2.135a.644.644 0 100 1.29h2.135zm-4.026-9.721l-1.51 1.51a.645.645 0 00.911.912l1.51-1.51a.644.644 0 10-.911-.912z"/></g><defs><clipPath id="clip0"><path fill="#fff" d="M0-.001h44v44H0z"/></clipPath></defs></svg>