<svg width="41" height="34" fill="none" xmlns="http://www.w3.org/2000/svg"><path d="M20.84 24.278a.68.68 0 00-.687.671v1.325a.68.68 0 00.687.67.677.677 0 00.686-.67v-1.325a.68.68 0 00-.686-.67z" fill="#fff" stroke="#fff" stroke-width=".1"/><path d="M37.558 15h0a13.125 13.125 0 00-2.926-5.882 13.654 13.654 0 00-5.22-3.717c-.33-1.336-1.02-2.713-2.373-3.75C25.72.64 24.393.445 24.334.437h0a.699.699 0 00-.547.157.664.664 0 00-.237.507v3.303h-2.225c-.589-1.914-2.41-3.312-4.562-3.312-2.198 0-4.053 1.46-4.6 3.44a13.676 13.676 0 00-8.194 4.23l.037.033-.037-.034C1.7 11.204.45 14.365.45 17.662c0 7.39 3.934 13.4 5.14 15.066a2.06 2.06 0 001.668.841H9.97c1.127 0 2.046-.894 2.046-1.996v-.801c.67.097 1.35.147 2.03.147h6.108v.654c0 1.102.919 1.996 2.046 1.996h2.977c.958 0 1.8-.662 2-1.577l.32-1.457c4.177-1.001 7.536-3.858 9.2-7.564h2.488c.752 0 1.366-.597 1.366-1.334v-5.3a1.31 1.31 0 00-.4-.943 1.374 1.374 0 00-.966-.39h0-1.625V15zm1.618 6.587h0v.041h-1.965c.336-1.043.543-2.14.603-3.268a.677.677 0 00-.65-.705.681.681 0 00-.722.635c-.267 5.023-3.756 9.316-8.62 10.766l.872-3.966a.671.671 0 00-.528-.797.687.687 0 00-.816.515l-1.517 6.902a.672.672 0 01-.656.517h-2.979a.664.664 0 01-.671-.654v-2.65a.68.68 0 00-.687-.67.68.68 0 00-.687.67v.654h-6.107c-.682 0-1.363-.056-2.031-.165V24.95a.679.679 0 00-.687-.671.68.68 0 00-.687.671v6.624c0 .36-.3.654-.672.654H7.26a.665.665 0 01-.548-.274h0c-1.147-1.585-4.887-7.299-4.887-14.29 0-2.964 1.123-5.804 3.162-7.999L4.95 9.63l.036.034a12.286 12.286 0 017.018-3.75c.015.388.08.771.191 1.141h-.188a.68.68 0 00-.687.671.68.68 0 00.687.671h9.512a.68.68 0 00.687-.671.68.68 0 00-.687-.671h-.188a4.55 4.55 0 00.196-1.308h2.023v1.317a.68.68 0 00.687.67.68.68 0 00.687-.67V1.99a5 5 0 012.105 1.533c.711.887 1.277 2.217 1.277 4.203a.68.68 0 00.687.671.68.68 0 00.687-.67c0-.239-.008-.489-.026-.746a12.262 12.262 0 013.929 3.003 11.792 11.792 0 012.629 5.285c.13.625.693 1.077 1.337 1.077h1.627v5.24zM16.763 2.435c1.87 0 3.39 1.484 3.39 3.304 0 .455-.098.903-.282 1.316h-6.215a3.236 3.236 0 01-.282-1.316c0-1.82 1.52-3.304 3.39-3.304z" fill="#fff" stroke="#fff" stroke-width=".1"/><path d="M28.412 15.44h0c.403-1.054 1.469-1.76 2.65-1.76 1.181 0 2.247.706 2.65 1.76 0 0 0 0 0 0l-.046.018a.617.617 0 01-.374.8l-4.88-.817zm0 0a.667.667 0 00.404.864m-.404-.863l.404.863m0 0a.692.692 0 00.883-.394l-.884.394zm4.253.042a.7.7 0 00.24-.042l-3.61-.394c.202-.53.749-.889 1.363-.889s1.161.36 1.363.89c.104.27.366.435.644.435zm-13.357 1.73c-.652-.442-1.492-.713-2.262-.925v-3.079c.595.077 1.098.25 1.455.462.37.222.568.478.568.707a.68.68 0 00.687.67.679.679 0 00.687-.67c0-.656-.374-1.242-.988-1.685-.605-.437-1.446-.738-2.409-.836v-.026a.68.68 0 00-.687-.67.679.679 0 00-.687.67v.026c-.962.098-1.804.4-2.408.836-.615.443-.989 1.029-.989 1.685 0 .927.472 1.558 1.136 2.008.651.442 1.491.713 2.261.925v3.08c-.595-.078-1.098-.25-1.454-.463-.371-.222-.569-.478-.569-.707a.68.68 0 00-.687-.67.68.68 0 00-.687.67c0 .656.374 1.242.989 1.685.604.437 1.446.738 2.408.836v.026c0 .372.309.67.687.67a.68.68 0 00.687-.67v-.026c.963-.098 1.804-.4 2.409-.836.614-.443.988-1.029.988-1.684 0-.928-.471-1.559-1.135-2.01zm-3.636-4.004v2.696c-.747-.232-1.251-.453-1.57-.695-.323-.245-.453-.51-.453-.832 0-.229.198-.485.569-.707.356-.213.86-.385 1.454-.462zm2.829 6.719c-.357.213-.86.385-1.455.462v-2.696c.748.232 1.252.454 1.57.695.324.246.453.51.453.833 0 .228-.197.484-.568.706z" fill="#fff" stroke="#fff" stroke-width=".1"/></svg>