<svg width="29" height="30" fill="none" xmlns="http://www.w3.org/2000/svg"><path d="M27.168 22.666l-2.378-.529v-.683a3.27 3.27 0 001.404-2.683v-.936a3.276 3.276 0 00-2.807-3.237v-2.225l-4.322-1.729.667-.667-.668-1.002c.135-.26.247-.53.336-.81l1.18-.237V5.29l-1.18-.236a5.134 5.134 0 00-.335-.81l.668-1.002-1.865-1.865-1.002.668a5.093 5.093 0 00-.81-.336L15.819.53H13.18l-.236 1.18c-.28.088-.55.201-.81.335l-1.002-.668-1.865 1.865.668 1.002a5.09 5.09 0 00-.336.81l-1.18.237v2.638l1.18.236c.088.28.201.55.335.81l-.668 1.002.668.668-4.322 1.73v2.224a3.276 3.276 0 00-2.807 3.237v.935a3.27 3.27 0 001.404 2.683v.684l-2.378.528A2.325 2.325 0 000 24.948v4.58h29v-4.58a2.324 2.324 0 00-1.832-2.282zm-3.313-.282c-.116.179-.438.596-.936.596-.497 0-.82-.418-.935-.596v-.477a3.273 3.273 0 001.87 0v.477zm1.403-4.55v.936c0 1.29-1.05 2.339-2.339 2.339a2.342 2.342 0 01-2.338-2.339v-.935a2.341 2.341 0 012.338-2.339c1.29 0 2.34 1.05 2.34 2.339zm-2.806-4.828v1.592a3.276 3.276 0 00-2.807 3.237v.935a3.27 3.27 0 001.403 2.683v.684l-2.338.52-2.339-.52v-.684a3.27 3.27 0 001.403-2.683v-.935a3.276 3.276 0 00-2.806-3.237V12.69h.85l.237-1.18c.28-.09.55-.202.81-.336l1.002.668.478-.478 4.107 1.642zm-2.807 15.587H9.355v-3.645c0-.663.452-1.226 1.099-1.37l2.428-.54c.268.355.8.877 1.618.877.818 0 1.35-.522 1.617-.876l2.43.54a1.395 1.395 0 011.098 1.37v3.644zM14.5 15.496c1.29 0 2.339 1.05 2.339 2.339v.935c0 1.29-1.05 2.339-2.339 2.339a2.341 2.341 0 01-2.339-2.339v-.935c0-1.29 1.05-2.339 2.339-2.339zm0 6.548c.325 0 .639-.049.935-.137v.476c-.116.18-.438.597-.935.597-.497 0-.82-.418-.935-.596v-.477c.296.088.61.137.935.137zM9.355 7.161V6.057l.997-.2.073-.285c.1-.392.254-.766.46-1.11l.15-.254-.564-.847.78-.78.847.564.254-.151a4.17 4.17 0 011.11-.46l.286-.073.2-.997h1.104l.2.997.285.073c.392.1.766.254 1.11.46l.254.15.847-.564.78.78-.564.847.151.254c.206.345.36.718.46 1.11l.073.286.997.2V7.16l-.997.2-.073.285a4.16 4.16 0 01-.46 1.11l-.15.254.564.847-.78.78-.847-.564-.254.151c-.345.206-.718.36-1.11.46l-.286.073-.2.997h-1.104l-.2-.997-.285-.073a4.188 4.188 0 01-1.11-.46l-.254-.15-.847.564-.78-.78.564-.847-.151-.254a4.17 4.17 0 01-.46-1.11l-.073-.286-.997-.2zm1.3 4.203l.478.477 1.002-.668c.26.135.53.247.81.336l.236 1.18h.851v1.909a3.276 3.276 0 00-2.806 3.237v.935a3.27 3.27 0 001.403 2.683v.684l-2.339.52-2.338-.52v-.684a3.27 3.27 0 001.403-2.683v-.935a3.276 3.276 0 00-2.807-3.237v-1.592l4.107-1.642zM3.742 18.77v-.935c0-1.29 1.05-2.339 2.339-2.339 1.29 0 2.338 1.05 2.338 2.339v.935a2.341 2.341 0 01-2.338 2.339 2.342 2.342 0 01-2.34-2.339zm2.339 3.274c.325 0 .639-.049.935-.137v.476c-.116.18-.438.597-.935.597-.498 0-.821-.42-.936-.596v-.477c.297.088.61.137.936.137zM.935 24.948c0-.663.452-1.226 1.1-1.37l2.428-.54c.268.355.8.877 1.618.877.818 0 1.35-.522 1.617-.876l1.366.303a2.32 2.32 0 00-.645 1.606v3.645H.935v-3.645zm27.13 3.645H20.58v-3.645c0-.621-.244-1.185-.645-1.606l1.366-.304c.267.355.8.877 1.617.877.818 0 1.35-.522 1.618-.876l2.429.54a1.395 1.395 0 011.098 1.37v3.644z" fill="#E3B873"/></svg>