<svg width="34" height="33" fill="none" xmlns="http://www.w3.org/2000/svg"><path d="M24.6 3.072c-.263-1.253-1.404-2.2-2.769-2.2a.558.558 0 00-.565.55c0 .305.253.55.565.55.935 0 1.696.74 1.696 1.65 0 .91-.76 1.65-1.696 1.65a.558.558 0 00-.565.55c0 .304.253.55.565.55 1.365 0 2.506-.947 2.77-2.2h7.404v4.95H1.485v-4.95h9.608a.558.558 0 00.565-.55.558.558 0 00-.565-.55h-1.027a1.69 1.69 0 011.592-1.1c.935 0 1.695.74 1.695 1.65 0 .91-.76 1.65-1.695 1.65a.558.558 0 00-.565.55c0 .304.253.55.565.55 1.558 0 2.826-1.234 2.826-2.75S13.216.872 11.658.872c-1.364 0-2.506.947-2.769 2.2H.354v29.146h32.781V3.072H24.6zm7.405 28.046H1.485V10.22h30.52v20.897z" fill="#fff"/><path d="M15.049 1.972c.935 0 1.696.74 1.696 1.65 0 .91-.761 1.65-1.696 1.65a.558.558 0 00-.565.55c0 .304.253.55.565.55 1.558 0 2.826-1.234 2.826-2.75S16.607.872 15.049.872a.558.558 0 00-.565.55c0 .305.253.55.565.55zm3.391 0c.935 0 1.696.74 1.696 1.65 0 .91-.761 1.65-1.696 1.65a.558.558 0 00-.565.55c0 .304.253.55.565.55 1.558 0 2.826-1.234 2.826-2.75S19.998.872 18.44.872a.558.558 0 00-.565.55c0 .305.253.55.565.55zm-13 12.648h12.435a.558.558 0 00.565-.55.558.558 0 00-.565-.55H5.441a.558.558 0 00-.565.55c0 .304.253.55.565.55zm22.609 7.7H19.57a.558.558 0 00-.566.549c0 .304.254.55.566.55h8.477a.558.558 0 00.566-.55.558.558 0 00-.566-.55zM5.44 19.02h5.653a.558.558 0 00.565-.55.558.558 0 00-.565-.55H5.44a.558.558 0 00-.565.55c0 .304.253.55.565.55zm22.609 7.698h-5.652a.558.558 0 00-.566.55c0 .305.254.55.566.55h5.652a.558.558 0 00.565-.55.558.558 0 00-.566-.55zM16.18 18.47c0 .304.253.55.565.55h8.477a.558.558 0 00.566-.55.558.558 0 00-.566-.55h-8.477a.558.558 0 00-.566.55zm-1.86.39a.57.57 0 00.164-.39.568.568 0 00-.164-.39.604.604 0 00-.803 0 .568.568 0 00-.163.39.57.57 0 00.163.39.58.58 0 00.803 0zm-6.618 4.009c0 .304.253.55.565.55h8.478a.558.558 0 00.565-.55.558.558 0 00-.565-.55H8.267a.558.558 0 00-.565.55zm-2.262.551a.602.602 0 00.402-.16.57.57 0 00.164-.39.545.545 0 00-.164-.385.598.598 0 00-.802-.006.568.568 0 00-.164.39.57.57 0 00.164.391.59.59 0 00.4.16zm22.609-4.4a.58.58 0 00.4-.16.546.546 0 000-.78.604.604 0 00-.802 0 .568.568 0 00-.164.39.57.57 0 00.164.39.58.58 0 00.402.16zm-8.479 7.698H5.44a.558.558 0 00-.564.55c0 .305.253.55.565.55h14.13a.558.558 0 00.565-.55.558.558 0 00-.565-.55z" fill="#fff"/></svg>